<?xml version="1.0" encoding="UTF-8"?>
<svg version="1.1" xmlns="http://www.w3.org/2000/svg" width="421" height="422">
<path d="M0 0 C1.24703957 -0.0146228 1.24703957 -0.0146228 2.51927185 -0.02954102 C21.1086515 -0.20257715 38.91830519 0.07712814 57.12890625 4.23828125 C57.96389648 4.4202002 58.79888672 4.60211914 59.65917969 4.78955078 C92.39338659 12.05444121 124.09682992 27.8757772 149.12890625 50.23828125 C149.87696533 50.89812012 149.87696533 50.89812012 150.64013672 51.57128906 C167.88573117 66.83445091 182.819872 84.08493657 194.12890625 104.23828125 C194.55026855 104.98674316 194.97163086 105.73520508 195.40576172 106.50634766 C206.73136495 126.84579627 214.29540045 147.47023448 219.12890625 170.23828125 C219.30824707 171.05039063 219.48758789 171.8625 219.67236328 172.69921875 C228.81600836 215.84778024 221.00101264 263.90076768 202.12890625 303.23828125 C201.73832031 304.05522461 201.34773438 304.87216797 200.9453125 305.71386719 C176.92258462 355.19674847 132.63215665 393.42237803 80.92993164 411.6472168 C69.85084949 415.38220704 58.67793512 418.38628675 47.12890625 420.23828125 C46.07445312 420.41343262 45.02 420.58858398 43.93359375 420.76904297 C33.35576766 422.36798351 22.93494096 422.63654209 12.25390625 422.61328125 C11.35460388 422.61306976 10.45530151 422.61285828 9.52874756 422.61264038 C-5.28787985 422.57797065 -19.3815115 421.54917528 -33.87109375 418.23828125 C-34.70608398 418.0563623 -35.54107422 417.87444336 -36.40136719 417.68701172 C-65.15830233 411.30482004 -92.62635293 398.28552159 -115.87109375 380.23828125 C-116.88042969 379.45839844 -117.88976562 378.67851562 -118.9296875 377.875 C-139.7786536 361.22540012 -157.76816733 341.58844419 -170.87109375 318.23828125 C-171.50313721 317.11558838 -171.50313721 317.11558838 -172.14794922 315.97021484 C-183.47502468 295.62812228 -191.02999757 275.00674576 -195.87109375 252.23828125 C-196.05043457 251.43148926 -196.22977539 250.62469727 -196.41455078 249.79345703 C-202.10272477 223.17144711 -201.1274035 191.60224557 -194.87109375 165.23828125 C-194.6297168 164.20896484 -194.38833984 163.17964844 -194.13964844 162.11914062 C-190.5233671 147.17184443 -185.51983135 133.0970843 -178.87109375 119.23828125 C-178.48050781 118.42133789 -178.08992188 117.60439453 -177.6875 116.76269531 C-153.63974939 67.2282713 -109.60214926 29.42433926 -58.01928711 10.87548828 C-39.52582371 4.55291062 -19.6046237 0.19127579 0 0 Z " fill="#BABABA" transform="translate(198.87109375,-0.23828125)"/>
</svg>
