<svg xmlns="http://www.w3.org/2000/svg" viewBox="0 0 69.72 39.33">
  <g id="Layer_2" data-name="Layer 2">
    <g id="Layer_1-2" data-name="Layer 1">
      <g>
        <circle cx="63.64" cy="33.25" r="6.08" fill="#ef4739"/>
        <path d="M22.85,10.22a13.22,13.22,0,0,1,4.64,8H17.21a4.05,4.05,0,0,0-1.59-2.51,5,5,0,0,0-2.94-.84,2.89,2.89,0,0,0-1.87.53,1.82,1.82,0,0,0-.64,1.48,1.88,1.88,0,0,0,1.37,1.76A30,30,0,0,0,16,20a43.83,43.83,0,0,1,6,1.67,10.37,10.37,0,0,1,4.14,2.91A8,8,0,0,1,27.94,30a8.24,8.24,0,0,1-1.51,4.86A9.92,9.92,0,0,1,22,38.13a17.57,17.57,0,0,1-6.79,1.2q-6.59,0-10.5-2.85A11.9,11.9,0,0,1,0,28.33H10.56A3.45,3.45,0,0,0,12,30.9a5.57,5.57,0,0,0,3.16.83,3,3,0,0,0,1.95-.55,1.81,1.81,0,0,0,.67-1.46,2,2,0,0,0-1.42-1.95,24.34,24.34,0,0,0-4.56-1.23A39,39,0,0,1,6,25a10,10,0,0,1-4-2.8,7.79,7.79,0,0,1-1.7-5.33,8.53,8.53,0,0,1,3.3-6.93Q6.86,7.2,13,7.21T22.85,10.22Z"/>
        <path d="M51.33,29.56v9.38H46.8q-5.76,0-9-2.85t-3.24-9.44V16.76h-4V7.6h4V0h11V7.6h5.64v9.16H45.57V26.87a2.77,2.77,0,0,0,.64,2.07,3.07,3.07,0,0,0,2.15.62Z"/>
      </g>
    </g>
  </g>
</svg>
